<?xml version="1.0" encoding="UTF-8"?>
<svg width="430px" height="93px" viewBox="0 0 430 93" version="1.1" xmlns="http://www.w3.org/2000/svg" xmlns:xlink="http://www.w3.org/1999/xlink">
    <title>Archive</title>
    <g id="Page-1" stroke="none" stroke-width="1" fill="none" fill-rule="evenodd">
        <g id="/" transform="translate(-498.000000, -662.000000)" stroke="#A0A0A0">
            <path d="M667.386674,691.510315 C669.513276,691.510315 671.620187,691.707217 673.707408,692.101033 C675.80057,692.495969 677.814776,693.02903 679.749969,693.700424 C681.672886,694.367558 683.439035,695.191272 685.048032,696.172368 C686.501339,697.058531 687.778282,698.024523 688.878032,699.071382 L688.878032,699.071382 L678.175368,711.463941 C676.90563,710.053173 675.516115,709.071062 673.828623,708.297628 C671.84256,707.387349 669.814938,706.93351 667.746306,706.93351 C665.585498,706.93351 663.633354,707.372564 661.888465,708.245008 C660.149396,709.114543 658.659018,710.274206 657.416859,711.723392 C656.180452,713.165866 655.211046,714.834556 654.510373,716.730494 C653.811023,718.622851 653.460413,720.638508 653.460413,722.777809 C653.460413,724.913897 653.789958,726.926538 654.447183,728.816058 C655.108624,730.717702 656.080781,732.391522 657.362255,733.838348 C658.646666,735.288489 660.179503,736.428147 661.961145,737.256817 C663.741704,738.084985 665.749511,738.50223 667.986061,738.50223 C670.044774,738.50223 672.08311,738.111927 674.100753,737.329576 C675.934069,736.618698 677.446418,735.620112 678.641201,734.33841 L678.641201,734.33841 L688.876073,746.822704 C686.235263,749.179657 683.315744,750.818699 679.809908,752.035009 C675.945392,753.37576 671.844177,754.045302 667.506551,754.045302 C662.851032,754.045302 658.510848,753.336389 654.486455,751.916015 C650.477076,750.50094 646.997624,748.438324 644.049429,745.725985 C641.102644,743.014943 638.785429,739.733617 637.096002,735.883293 C635.403702,732.026424 634.560775,727.657444 634.560775,722.777809 C634.560775,717.977498 635.403938,713.648533 637.096002,709.792201 C638.785429,705.941878 641.102644,702.660552 644.049429,699.94951 C646.998776,697.236111 650.479597,695.153029 654.490546,693.698077 C658.513192,692.238882 662.812026,691.510315 667.386674,691.510315 Z M898.030666,691.510315 C902.358175,691.510315 906.332121,692.23623 909.951713,693.691936 C913.558947,695.142671 916.656922,697.239779 919.244792,699.98449 C921.838031,702.734895 923.859658,706.075695 925.313338,710.004561 C926.703544,713.761874 927.429105,718.020508 927.495054,722.779475 L927.5,723.497073 L927.500064,725.886638 C927.488672,726.60019 927.468593,727.099278 927.438174,727.518543 L927.426279,727.672289 L884.046363,727.672289 C884.266569,729.963837 884.794637,731.561021 885.677472,732.990374 C886.548721,734.400967 887.668464,735.625307 889.037631,736.662555 C890.398066,737.693188 891.92315,738.497617 893.613449,739.074792 C895.303729,739.651961 897.055825,739.940758 898.869808,739.940758 C902.081235,739.940758 904.795966,739.336497 907.018275,738.143034 C908.949267,737.10602 910.569128,735.804414 911.879395,734.239964 L912.176269,733.874271 L925.01195,741.981018 C922.292421,745.785862 918.764214,748.71896 914.417949,750.797609 C909.884596,752.965734 904.621221,754.045302 898.630053,754.045302 C894.212901,754.045302 890.0322,753.355909 886.088231,751.97552 C882.156555,750.599433 878.715751,748.595136 875.766895,745.960824 C872.822256,743.33028 870.507062,740.090386 868.81889,736.242925 C867.126358,732.385528 866.283663,727.976532 866.283663,723.017563 C866.283663,718.214793 867.107836,713.864028 868.761378,709.966393 C870.411849,706.075997 872.650518,702.774049 875.480048,700.062416 C878.310356,697.350038 881.652203,695.247887 885.504433,693.754165 C889.364719,692.25732 893.540314,691.510315 898.030666,691.510315 Z M898.150544,704.056454 C896.168421,704.056454 894.351944,704.368032 892.700379,704.987369 C891.043851,705.608567 889.595062,706.458521 888.352769,707.535175 C887.105111,708.616478 886.107119,709.885022 885.358534,711.340604 C884.523262,712.964745 884.100988,714.66633 884.089617,716.444801 L884.089617,716.444801 L910.390548,716.444801 L910.39818,716.047806 C910.420011,712.758284 909.39761,709.937817 907.337816,707.583767 C905.2962,705.250491 902.243472,704.056454 898.150544,704.056454 Z M553.169438,668.254112 L587.99812,752.127265 L566.310326,752.127265 L559.717072,735.464316 L526.184014,735.464316 L519.950392,752.127265 L498.751957,752.127265 L533.936034,668.254112 L553.169438,668.254112 Z M543.199031,688.957067 L531.686418,720.041121 L554.455807,720.041121 L543.199031,688.957067 Z M628.606356,691.75007 C629.387641,691.75007 630.149399,691.789071 630.891622,691.8672 C631.429986,691.92387 631.894108,692.000533 632.283505,692.099195 L632.283505,692.099195 L631.493,708.357 L631.123347,708.274584 C630.694407,708.184226 630.270221,708.112929 629.850798,708.060628 L629.432964,708.014658 C628.577635,707.933198 627.74267,707.892529 626.928074,707.892529 C624.195996,707.892529 621.90134,708.396945 620.039587,709.38988 C618.175183,710.384229 616.68611,711.588243 615.567742,712.996558 C614.44821,714.40634 613.64032,715.940807 613.142776,717.599287 C612.646847,719.252384 612.402425,720.699133 612.402425,721.938667 L612.402425,721.938667 L612.402425,752.127265 L593.742543,752.127265 L593.742543,693.428352 L611.683161,693.428352 L611.683161,702.728894 L613.059635,701.413558 C614.527436,698.62168 616.567321,696.330394 619.179056,694.53949 C621.894739,692.677307 625.038004,691.75007 628.606356,691.75007 Z M715.257179,662.5 L715.257179,702.161709 C717.251997,698.908816 719.508175,696.540868 722.738378,694.489253 C725.621056,692.658362 729.089576,691.75007 733.139392,691.75007 C737.121751,691.75007 740.462659,692.445087 743.157621,693.851154 C745.845132,695.253333 748.027862,697.062908 749.702877,699.283277 C751.382362,701.509571 752.591889,704.068373 753.333941,706.958468 C754.082522,709.873994 754.457067,712.789499 754.457067,715.705046 L754.457067,715.705046 L754.457067,752.127265 L735.677307,752.127265 L735.677281,720.255248 L735.669861,719.535671 C735.640016,718.093186 735.520467,716.71041 735.311556,715.38731 C735.061288,713.802279 734.579384,712.405926 733.870435,711.196541 C733.147954,709.964075 732.191184,708.987237 731.001335,708.264828 C729.815205,707.544678 728.292633,707.173265 726.426261,707.173265 C722.811215,707.173265 720.04601,708.467981 718.115144,711.028477 C716.215885,713.547059 715.257179,716.662109 715.257179,720.380262 L715.257179,720.380262 L715.257179,752.127265 L696.597296,752.127265 L696.597296,662.5 L715.257179,662.5 Z M787.723028,693.428352 L787.723028,752.127265 L769.063145,752.127265 L769.063145,693.428352 L787.723028,693.428352 Z M815.851168,693.428352 L828.794817,733.245482 L842.108285,693.428352 L861.992673,693.428352 L838.890289,752.127265 L818.35309,752.127265 L795.250706,693.428352 L815.851168,693.428352 Z M778.393086,663.578896 C779.847071,663.578896 781.243699,663.84659 782.582914,664.382276 C783.918609,664.916554 785.064452,665.640358 786.018663,666.5564 C786.972572,667.472153 787.734992,668.560051 788.307292,669.819112 C788.877538,671.073653 789.161556,672.423397 789.161556,673.867856 C789.161556,675.312315 788.877538,676.66206 788.307292,677.9166 C787.734992,679.175662 786.972572,680.263559 786.018663,681.179312 C785.064452,682.095354 783.918609,682.819158 782.582914,683.353437 C781.243699,683.889122 779.847071,684.156816 778.393086,684.156816 C775.337057,684.156816 772.775238,683.148708 770.711539,681.123225 C768.654899,679.104671 767.624617,676.686756 767.624617,673.867856 C767.624617,672.497262 767.891035,671.183752 768.424049,669.927363 C768.955256,668.675233 769.713886,667.593655 770.700445,666.682986 C771.699632,665.760659 772.852886,665.011858 774.159445,664.435435 C775.456236,663.863321 776.867688,663.578896 778.393086,663.578896 Z" id="Archive"></path>
        </g>
    </g>
</svg>