<?xml version="1.0" encoding="UTF-8"?>
<svg width="783px" height="169px" viewBox="0 0 783 169" version="1.1" xmlns="http://www.w3.org/2000/svg" xmlns:xlink="http://www.w3.org/1999/xlink">
    <title>Magazine</title>
    <g id="Page-1" stroke="none" stroke-width="1" fill="none" fill-rule="evenodd">
        <g id="/" transform="translate(-96.000000, -1816.000000)" stroke="#A0A0A0">
            <path d="M387.714286,1856.5 C393.026777,1856.5 398.113205,1857.57225 402.973569,1859.71676 C408.135875,1861.99449 412.20805,1865.61678 415.191105,1870.58244 L415.476387,1871.06718 L415.857111,1858.9016 L441.5,1858.9016 L441.500006,1935.76488 L441.496015,1936.59366 C441.419177,1944.52583 440.231787,1951.45238 437.926491,1957.37174 C435.550598,1963.47237 432.215243,1968.52976 427.915714,1972.54064 C423.615495,1976.55215 418.38058,1979.54449 412.213521,1981.52188 C406.01784,1983.50845 399.168293,1984.5 391.665461,1984.5 C384.15145,1984.5 376.438369,1983.36226 368.525974,1981.0886 C361.08133,1978.94934 354.569749,1975.90427 348.992878,1971.95014 L348.377072,1971.50706 L361.863759,1952.2916 C366.015587,1955.86355 370.440971,1958.45259 375.263673,1960.16854 C380.302441,1961.96138 385.254487,1962.85638 390.119349,1962.85638 C398.543354,1962.85638 404.753887,1960.60774 408.784958,1956.17413 C412.712144,1951.85477 414.739076,1946.1542 414.837968,1939.06039 L414.841772,1938.51197 L414.841772,1932.86569 L413.583179,1932.86569 L413.11585,1933.46128 C410.562589,1936.64502 407.177822,1939.20458 402.966127,1941.14564 C398.560719,1943.17597 393.53346,1944.1875 387.886076,1944.1875 C381.438025,1944.1875 375.724098,1943.03346 370.746173,1940.71754 C365.772579,1938.40364 361.561307,1935.27218 358.11361,1931.32151 C354.662072,1927.36644 352.031961,1922.76111 350.221366,1917.50666 C348.406602,1912.2401 347.5,1906.662 347.5,1900.77261 C347.5,1894.88237 348.406877,1889.27517 350.221898,1883.95123 C352.033384,1878.63767 354.664934,1873.94539 358.118152,1869.87534 C361.566905,1865.81055 365.779376,1862.56506 370.75452,1860.13753 C375.729385,1857.71013 381.383228,1856.5 387.714286,1856.5 Z M394.155462,1878.5 C390.860503,1878.5 387.949189,1879.08439 385.419617,1880.24517 C382.885646,1881.40796 380.73543,1882.97858 378.967641,1884.95522 C377.202508,1886.9289 375.848062,1889.25027 374.906598,1891.92071 C373.96949,1894.57879 373.5,1897.41012 373.5,1900.41502 C373.5,1903.30546 373.969108,1906.0802 374.906598,1908.73937 C375.847026,1911.40687 377.19966,1913.75491 378.962888,1915.78444 C380.729633,1917.81803 382.878667,1919.44565 385.411117,1920.66585 C387.943149,1921.88586 390.857248,1922.5 394.155462,1922.5 C397.448898,1922.5 400.418005,1921.88791 403.06415,1920.66959 C405.711058,1919.45092 407.94518,1917.85379 409.768466,1915.88085 C411.591615,1913.90807 413.004098,1911.58768 414.003943,1908.91847 C415.000692,1906.25753 415.5,1903.42316 415.5,1900.41502 C415.5,1897.52141 415.00112,1894.74361 414.003943,1892.08153 C413.004374,1889.41305 411.563356,1887.06397 409.681864,1885.03366 C407.798758,1883.00161 405.562836,1881.40458 402.973503,1880.24338 C400.386878,1879.0834 397.448055,1878.5 394.155462,1878.5 Z M292.949474,1856.5 C300.044579,1856.5 306.042771,1857.37123 310.942198,1859.12291 C315.797238,1860.85871 319.733667,1863.54386 322.747507,1867.18389 C325.77366,1870.83879 327.982741,1875.45155 329.383541,1881.01747 C330.741644,1886.41373 331.444796,1892.7798 331.496875,1900.11511 L331.5,1901 L331.5,1943.44677 L306.921053,1943.44677 L306.921053,1934.37833 L305.634349,1934.37833 C303.277346,1938.14847 300.11317,1940.76821 295.901673,1942.63411 C291.587088,1944.54569 286.908068,1945.5 281.865263,1945.5 C278.493923,1945.5 275.010321,1945.04825 271.414285,1944.1462 C267.834807,1943.24831 264.562731,1941.78963 261.598432,1939.76934 C258.647533,1937.75818 256.227182,1935.07535 254.334314,1931.7237 C252.439213,1928.3681 251.5,1924.22788 251.5,1919.30798 C251.5,1913.28996 253.125102,1908.43481 256.403853,1904.75466 C259.707457,1901.04661 263.964717,1898.18426 269.171554,1896.1619 C274.41934,1894.12363 280.259864,1892.766 286.692517,1892.08659 C292.819976,1891.43941 298.794532,1891.099 304.616191,1891.06548 L306.068421,1891.0635 L306.068421,1889.18863 C305.971399,1884.56931 304.403301,1881.47291 301.414573,1879.45446 C298.382995,1877.40708 294.653821,1876.37452 290.221053,1876.37452 C286.169555,1876.37452 282.262594,1877.2451 278.500414,1878.98735 C275.150769,1880.53857 272.23981,1882.36834 269.76618,1884.47469 L269.277285,1884.89964 L255.79669,1870.39569 C260.803092,1865.73866 266.392873,1862.35009 272.741017,1860.06357 C279.072436,1857.78307 285.5337,1856.59694 292.124897,1856.5057 L292.949474,1856.5 L292.949474,1856.5 Z M306.5,1905.5 L302.5,1905.5 L301.209255,1905.50859 L299.910583,1905.53445 C297.743691,1905.59192 295.564478,1905.72118 293.371022,1905.92226 C290.27404,1906.20617 287.515226,1906.74683 285.094032,1907.54176 C282.626269,1908.35196 280.591277,1909.54156 278.984763,1911.10372 C277.335748,1912.7072 276.5,1914.81208 276.5,1917.42857 C276.5,1919.10404 276.892349,1920.53738 277.663074,1921.73308 C278.427597,1922.91915 279.398404,1923.86746 280.574501,1924.57905 C281.733154,1925.28009 283.064984,1925.77854 284.571478,1926.07069 C286.048921,1926.3572 287.469567,1926.5 288.833333,1926.5 C294.554175,1926.5 298.916895,1924.89218 301.94482,1921.72359 C304.970497,1918.55735 306.5,1914.27354 306.5,1908.85714 L306.5,1908.85714 L306.5,1905.5 Z M497.949474,1856.5 C505.044579,1856.5 511.042771,1857.37123 515.942198,1859.12291 C520.797238,1860.85871 524.733667,1863.54386 527.747507,1867.18389 C530.77366,1870.83879 532.982741,1875.45155 534.383541,1881.01747 C535.741644,1886.41373 536.444796,1892.7798 536.496875,1900.11511 L536.5,1901 L536.5,1943.44677 L511.921053,1943.44677 L511.921053,1934.37833 L510.634349,1934.37833 C508.277346,1938.14847 505.11317,1940.76821 500.901673,1942.63411 C496.587088,1944.54569 491.908068,1945.5 486.865263,1945.5 C483.493923,1945.5 480.010321,1945.04825 476.414285,1944.1462 C472.834807,1943.24831 469.562731,1941.78963 466.598432,1939.76934 C463.647533,1937.75818 461.227182,1935.07535 459.334314,1931.7237 C457.439213,1928.3681 456.5,1924.22788 456.5,1919.30798 C456.5,1913.28996 458.125102,1908.43481 461.403853,1904.75466 C464.707457,1901.04661 468.964717,1898.18426 474.171554,1896.1619 C479.41934,1894.12363 485.259864,1892.766 491.692517,1892.08659 C497.819976,1891.43941 503.794532,1891.099 509.616191,1891.06548 L511.068421,1891.0635 L511.068421,1889.18863 C510.971399,1884.56931 509.403301,1881.47291 506.414573,1879.45446 C503.382995,1877.40708 499.653821,1876.37452 495.221053,1876.37452 C491.169555,1876.37452 487.262594,1877.2451 483.500414,1878.98735 C480.150769,1880.53857 477.23981,1882.36834 474.76618,1884.47469 L474.277285,1884.89964 L460.79669,1870.39569 C465.803092,1865.73866 471.392873,1862.35009 477.741017,1860.06357 C484.336245,1857.68805 491.072364,1856.5 497.949474,1856.5 Z M511.5,1905.5 L507.5,1905.5 L506.209255,1905.50859 L504.910583,1905.53445 C502.743691,1905.59192 500.564478,1905.72118 498.371022,1905.92226 C495.27404,1906.20617 492.515226,1906.74683 490.094032,1907.54176 C487.626269,1908.35196 485.591277,1909.54156 483.984763,1911.10372 C482.335748,1912.7072 481.5,1914.81208 481.5,1917.42857 C481.5,1919.10404 481.892349,1920.53738 482.663074,1921.73308 C483.427597,1922.91915 484.398404,1923.86746 485.574501,1924.57905 C486.733154,1925.28009 488.064984,1925.77854 489.571478,1926.07069 C491.048921,1926.3572 492.469567,1926.5 493.833333,1926.5 C499.554175,1926.5 503.916895,1924.89218 506.94482,1921.72359 C509.970497,1918.55735 511.5,1914.27354 511.5,1908.85714 L511.5,1908.85714 L511.5,1905.5 Z M836.129094,1855.5 C842.348761,1855.5 848.060052,1856.54545 853.262175,1858.64022 C858.452,1860.73005 862.908932,1863.75125 866.632138,1867.70504 C870.36078,1871.66461 873.268358,1876.47368 875.358552,1882.12992 C877.377151,1887.59242 878.421135,1893.79169 878.495698,1900.72673 L878.5,1901.53019 L878.500025,1904.95911 L878.493244,1905.63389 C878.482213,1906.17509 878.457671,1906.70275 878.419581,1907.21684 L878.376973,1907.72642 L816.364913,1907.72642 C816.669168,1910.78819 817.409358,1913.01699 818.640928,1915.01345 C819.873395,1917.01137 821.457568,1918.7453 823.394363,1920.2144 C825.322484,1921.67693 827.484067,1922.81823 829.879673,1923.63726 C832.275297,1924.45631 834.758542,1924.86604 837.32948,1924.86604 C841.882764,1924.86604 845.732907,1924.01126 848.884192,1922.31679 C851.715684,1920.79427 854.075586,1918.87026 855.965588,1916.54668 L856.314457,1916.10633 L875.032515,1927.94305 C871.050118,1933.55868 865.952467,1937.81587 859.663629,1940.82734 C853.152097,1943.94545 845.592314,1945.5 836.986513,1945.5 C830.64279,1945.5 824.638729,1944.50834 818.974608,1942.52342 C813.322739,1940.54279 808.37677,1937.65758 804.13777,1933.86601 C799.90291,1930.07813 796.572752,1925.41316 794.144854,1919.8729 C791.712574,1914.32263 790.5,1907.97892 790.5,1900.8434 C790.5,1893.93317 791.685448,1887.6736 794.061535,1882.06582 C796.434529,1876.46534 799.653758,1871.7124 803.721901,1867.80889 C807.790752,1863.9047 812.594765,1860.87845 818.132791,1858.72837 C823.678822,1856.57518 829.677774,1855.5 836.129094,1855.5 Z M835.815166,1875.5 C832.947639,1875.5 830.319511,1875.93214 827.930095,1876.79274 C825.534386,1877.6556 823.438874,1878.83597 821.642206,1880.3315 C819.83811,1881.83322 818.395198,1883.59511 817.312768,1885.61661 C816.1385,1887.80961 815.528799,1890.10432 815.481076,1892.5 L815.481076,1892.5 L853.494011,1892.5 L853.499951,1892.04492 C853.509786,1887.51552 852.0328,1883.62748 849.073405,1880.37906 C846.12713,1877.14504 841.717475,1875.5 835.815166,1875.5 Z M743.556911,1857.5 C749.225158,1857.5 754.04548,1858.50836 758.014128,1860.53887 C761.973954,1862.56487 765.171948,1865.17991 767.60464,1868.38805 C770.041885,1871.60219 771.797727,1875.29614 772.874604,1879.4687 C773.958028,1883.66663 774.5,1887.86454 774.5,1892.0625 L774.5,1892.0625 L774.5,1944.5 L746.993902,1944.5 L746.993881,1898.24532 L746.986349,1897.44276 C746.946,1895.29806 746.74401,1893.24515 746.380871,1891.28397 C745.967081,1889.04924 745.285405,1887.07996 744.339699,1885.37469 C743.374271,1883.63386 742.017076,1882.25269 740.267133,1881.23215 C738.530369,1880.21928 736.346449,1879.70312 733.70935,1879.70312 C731.087732,1879.70312 728.795444,1880.21175 726.829881,1881.2191 C724.859703,1882.22881 723.21789,1883.6246 721.904437,1885.40645 C720.603171,1887.17177 719.625941,1889.20135 718.97526,1891.49643 C718.32938,1893.77458 718.006098,1896.14032 718.006098,1898.59375 L718.006098,1898.59375 L718.006098,1944.5 L690.5,1944.5 L690.5,1859.90625 L716.969512,1859.90625 L716.969512,1872.29373 L718.487506,1871.1022 C719.472283,1869.44194 720.72331,1867.80623 722.239255,1866.19408 C723.875228,1864.45428 725.793641,1862.96757 727.993683,1861.7329 C730.209052,1860.48964 732.62339,1859.47283 735.236358,1858.68167 C737.840068,1857.89332 740.613674,1857.5 743.556911,1857.5 Z M234.5,1823.5 L234.5,1943.5 L206.810581,1943.5 L207.497849,1857.87712 L206.129989,1857.87712 L174.51565,1943.5 L154.597662,1943.5 L123.842409,1857.87712 L122.471249,1857.87712 L123.158517,1943.5 L96.5,1943.5 L96.5,1823.5 L137.398979,1823.5 L165.061525,1901.0904 L166.459124,1901.0904 L192.918951,1823.5 L234.5,1823.5 Z M624.788288,1858.5 L624.788288,1878.79063 L582.85059,1921.82329 L626.5,1921.82329 L626.5,1942.5 L551.5,1942.5 L551.5,1921.35403 L592.228653,1879.00602 L553.040541,1879.00602 L553.040541,1858.5 L624.788288,1858.5 Z M669.5,1858.5 L669.5,1942.5 L642.5,1942.5 L642.5,1858.5 L669.5,1858.5 Z M657,1816.5 C659.090916,1816.5 661.099327,1816.8896 663.025185,1817.66904 C664.948054,1818.44726 666.597158,1819.5022 667.970774,1820.83643 C669.344672,1822.17095 670.443023,1823.75616 671.267314,1825.59101 C672.089856,1827.42196 672.5,1829.39179 672.5,1831.5 C672.5,1833.60821 672.089856,1835.57804 671.267314,1837.40899 C670.443023,1839.24384 669.344672,1840.82905 667.970774,1842.16357 C666.597158,1843.4978 664.948054,1844.55274 663.025185,1845.33096 C661.099327,1846.1104 659.090916,1846.5 657,1846.5 C652.602415,1846.5 648.917243,1845.02993 645.948066,1842.08133 C642.983631,1839.13744 641.5,1835.61072 641.5,1831.5 C641.5,1829.5006 641.884118,1827.58447 642.652597,1825.75167 C643.419029,1823.92376 644.513614,1822.34484 645.937029,1821.01541 C647.372416,1819.6748 649.028958,1818.5861 650.905936,1817.74824 C652.772587,1816.915 654.80418,1816.5 657,1816.5 Z" id="Magazine"></path>
        </g>
    </g>
</svg>