<?xml version="1.0" encoding="UTF-8"?>
<svg width="1329px" height="166px" viewBox="0 0 1329 166" version="1.1" xmlns="http://www.w3.org/2000/svg" xmlns:xlink="http://www.w3.org/1999/xlink">
    <title>Group 3</title>
    <g id="Page-1" stroke="none" stroke-width="1" fill="none" fill-rule="evenodd">
        <g id="/about" transform="translate(-119.000000, -984.000000)">
            <g id="Group-3" transform="translate(120.000000, 985.000000)">
                <path d="M35.3463687,161 L35.3463687,105.940678 L52.9162011,105.940678 C60.4953445,105.940678 67.7988827,105.115819 74.8268156,103.466102 C81.8547486,101.816384 88.0558659,99.2043315 93.4301676,95.6299435 C98.8044693,92.0555556 103.07635,87.3469868 106.24581,81.5042373 C109.41527,75.6614878 111,68.4783427 111,59.9548023 C111,51.5687382 109.518622,44.5230697 106.555866,38.8177966 C103.59311,33.1125235 99.527933,28.5070621 94.3603352,25.0014124 C89.1927374,21.4957627 83.1294227,18.9524482 76.1703911,17.3714689 C69.2113594,15.7904896 61.735568,15 53.7430168,15 L0,15 L0,161 L35.3463687,161 Z M36,77 L36,43 L51.3846154,43 C54.5299145,43 57.5726496,43.2035928 60.5128205,43.6107784 C63.4529915,44.0179641 66.0854701,44.8323353 68.4102564,46.0538922 C70.7350427,47.2754491 72.5811966,48.9720559 73.9487179,51.1437126 C75.3162393,53.3153693 76,56.0978044 76,59.491018 C76,62.8842315 75.3162393,65.7005988 73.9487179,67.9401198 C72.5811966,70.1796407 70.7008547,71.9780439 68.3076923,73.3353293 C65.9145299,74.6926148 63.2136752,75.6427146 60.2051282,76.1856287 C57.1965812,76.7285429 54.0512821,77 50.7692308,77 L36,77 Z M166.396022,164 C174.298373,164 181.715491,162.685535 188.647378,160.056604 C195.579265,157.427673 201.679325,153.726415 206.947559,148.95283 C212.215793,144.179245 216.374925,138.367925 219.424955,131.518868 C222.474985,124.669811 224,117.025157 224,108.584906 C224,100.144654 222.474985,92.5345912 219.424955,85.754717 C216.374925,78.9748428 212.215793,73.2327044 206.947559,68.5283019 C201.679325,63.8238994 195.579265,60.2264151 188.647378,57.7358491 C181.715491,55.245283 174.298373,54 166.396022,54 C158.632309,54 151.249849,55.245283 144.248644,57.7358491 C137.247438,60.2264151 131.147378,63.8238994 125.948463,68.5283019 C120.749548,73.2327044 116.625075,78.9748428 113.575045,85.754717 C110.525015,92.5345912 109,100.144654 109,108.584906 C109,117.025157 110.525015,124.669811 113.575045,131.518868 C116.625075,138.367925 120.749548,144.179245 125.948463,148.95283 C131.147378,153.726415 137.247438,157.427673 144.248644,160.056604 C151.249849,162.685535 158.632309,164 166.396022,164 Z M166.5,135 C162.485876,135 158.956215,134.240885 155.911017,132.722656 C152.865819,131.204427 150.305085,129.16862 148.228814,126.615234 C146.152542,124.061849 144.595339,121.197917 143.557203,118.023438 C142.519068,114.848958 142,111.605469 142,108.292969 C142,104.980469 142.519068,101.736979 143.557203,98.5625 C144.595339,95.3880208 146.117938,92.593099 148.125,90.1777344 C150.132062,87.7623698 152.658192,85.7955729 155.70339,84.2773438 C158.748588,82.7591146 162.278249,82 166.292373,82 C170.306497,82 173.836158,82.7591146 176.881356,84.2773438 C179.926554,85.7955729 182.487288,87.7623698 184.563559,90.1777344 C186.639831,92.593099 188.231638,95.3880208 189.338983,98.5625 C190.446328,101.736979 191,104.980469 191,108.292969 C191,111.605469 190.480932,114.848958 189.442797,118.023438 C188.404661,121.197917 186.847458,124.061849 184.771186,126.615234 C182.694915,129.16862 180.134181,131.204427 177.088983,132.722656 C174.043785,134.240885 170.514124,135 166.5,135 Z M271.793939,161 L271.793939,108 C271.793939,105.929688 272.206061,103.514323 273.030303,100.753906 C273.854545,97.9934896 275.193939,95.4401042 277.048485,93.09375 C278.90303,90.7473958 281.375758,88.7460938 284.466667,87.0898438 C287.557576,85.4335938 291.369697,84.6054688 295.90303,84.6054688 C297.276768,84.6054688 298.684848,84.6744792 300.127273,84.8125 C301.569697,84.9505208 303.046465,85.2265625 304.557576,85.640625 L306,55.828125 C305.175758,55.5520833 304.111111,55.3450521 302.806061,55.2070313 C301.50101,55.0690104 300.161616,55 298.787879,55 C292.468687,55 286.905051,56.65625 282.09697,59.96875 C277.288889,63.28125 273.579798,67.5598958 270.969697,72.8046875 L270.557576,72.8046875 L270.557576,57.8984375 L238,57.8984375 L238,161 L271.793939,161 Z M368.271709,163 C371.864613,163 375.457516,162.688768 379.05042,162.066303 C382.643324,161.443838 385.614379,160.717629 387.963585,159.887676 L387.54902,134.98908 C386.305322,135.542382 384.7507,135.957358 382.885154,136.234009 C381.019608,136.51066 379.257703,136.648986 377.59944,136.648986 C372.762838,136.648986 369.411765,135.438638 367.546218,133.017941 C365.680672,130.597244 364.747899,126.966199 364.747899,122.124805 L364.747899,82.7020281 L389,82.7020281 L389,57.1809672 L364.747899,57.1809672 L364.747899,30 L331.37535,30 L331.37535,57.1809672 L315,57.1809672 L315,82.7020281 L331.582633,82.7020281 L331.582633,126.274571 C331.582633,131.807592 332.204482,136.821893 333.448179,141.317473 C334.691877,145.813053 336.730159,149.686167 339.563025,152.936817 C342.395892,156.187467 346.161531,158.677327 350.859944,160.406396 C355.558357,162.135465 361.362278,163 368.271709,163 Z M452.125,161 L452.125,83.0967742 L475.25,83.0967742 L475.25,57.5445161 L452.125,57.5445161 L452.125,47.1574194 C452.125,44.8030108 452.333333,42.4486022 452.75,40.0941935 C453.166667,37.7397849 453.930556,35.6277419 455.041667,33.7580645 C456.152778,31.8883871 457.680556,30.3995699 459.625,29.2916129 C461.569444,28.1836559 464.138889,27.6296774 467.333333,27.6296774 C469,27.6296774 470.666667,27.768172 472.333333,28.0451613 C474,28.3221505 475.458333,28.6683871 476.708333,29.083871 L479,2.07741935 C476.638889,1.38494624 474.034722,0.865591398 471.1875,0.519354839 C468.340278,0.17311828 465.458333,0 462.541667,0 C453.930556,0 446.743056,1.28107527 440.979167,3.84322581 C435.215278,6.40537634 430.631944,9.86774194 427.229167,14.2303226 C423.826389,18.5929032 421.430556,23.647957 420.041667,29.3954839 C418.652778,35.1430108 417.958333,41.2021505 417.958333,47.5729032 L417.958333,57.5445161 L399,57.5445161 L399,83.0967742 L417.958333,83.0967742 L417.958333,161 L452.125,161 Z M537.396022,164 C545.298373,164 552.715491,162.685535 559.647378,160.056604 C566.579265,157.427673 572.679325,153.726415 577.947559,148.95283 C583.215793,144.179245 587.374925,138.367925 590.424955,131.518868 C593.474985,124.669811 595,117.025157 595,108.584906 C595,100.144654 593.474985,92.5345912 590.424955,85.754717 C587.374925,78.9748428 583.215793,73.2327044 577.947559,68.5283019 C572.679325,63.8238994 566.579265,60.2264151 559.647378,57.7358491 C552.715491,55.245283 545.298373,54 537.396022,54 C529.632309,54 522.249849,55.245283 515.248644,57.7358491 C508.247438,60.2264151 502.147378,63.8238994 496.948463,68.5283019 C491.749548,73.2327044 487.625075,78.9748428 484.575045,85.754717 C481.525015,92.5345912 480,100.144654 480,108.584906 C480,117.025157 481.525015,124.669811 484.575045,131.518868 C487.625075,138.367925 491.749548,144.179245 496.948463,148.95283 C502.147378,153.726415 508.247438,157.427673 515.248644,160.056604 C522.249849,162.685535 529.632309,164 537.396022,164 Z M537.5,135 C533.485876,135 529.956215,134.240885 526.911017,132.722656 C523.865819,131.204427 521.305085,129.16862 519.228814,126.615234 C517.152542,124.061849 515.595339,121.197917 514.557203,118.023438 C513.519068,114.848958 513,111.605469 513,108.292969 C513,104.980469 513.519068,101.736979 514.557203,98.5625 C515.595339,95.3880208 517.117938,92.593099 519.125,90.1777344 C521.132062,87.7623698 523.658192,85.7955729 526.70339,84.2773438 C529.748588,82.7591146 533.278249,82 537.292373,82 C541.306497,82 544.836158,82.7591146 547.881356,84.2773438 C550.926554,85.7955729 553.487288,87.7623698 555.563559,90.1777344 C557.639831,92.593099 559.231638,95.3880208 560.338983,98.5625 C561.446328,101.736979 562,104.980469 562,108.292969 C562,111.605469 561.480932,114.848958 560.442797,118.023438 C559.404661,121.197917 557.847458,124.061849 555.771186,126.615234 C553.694915,129.16862 551.134181,131.204427 548.088983,132.722656 C545.043785,134.240885 541.514124,135 537.5,135 Z M644,161 L644,4 L610,4 L610,161 L644,161 Z M679.5,43 C682.12766,43 684.651596,42.5203704 687.071809,41.5611111 C689.492021,40.6018519 691.566489,39.3 693.295213,37.6555556 C695.023936,36.0111111 696.406915,34.0583333 697.444149,31.7972222 C698.481383,29.5361111 699,27.1037037 699,24.5 C699,21.8962963 698.481383,19.4638889 697.444149,17.2027778 C696.406915,14.9416667 695.023936,12.9888889 693.295213,11.3444444 C691.566489,9.7 689.492021,8.39814815 687.071809,7.43888889 C684.651596,6.47962963 682.12766,6 679.5,6 C676.734043,6 674.175532,6.51388889 671.824468,7.54166667 C669.473404,8.56944444 667.398936,9.90555556 665.601064,11.55 C663.803191,13.1944444 662.420213,15.1472222 661.452128,17.4083333 C660.484043,19.6694444 660,22.0333333 660,24.5 C660,29.5703704 661.867021,33.9212963 665.601064,37.5527778 C669.335106,41.1842593 673.968085,43 679.5,43 Z M696,161 L696,58 L662,58 L662,161 L696,161 Z M772.396022,164 C780.298373,164 787.715491,162.685535 794.647378,160.056604 C801.579265,157.427673 807.679325,153.726415 812.947559,148.95283 C818.215793,144.179245 822.374925,138.367925 825.424955,131.518868 C828.474985,124.669811 830,117.025157 830,108.584906 C830,100.144654 828.474985,92.5345912 825.424955,85.754717 C822.374925,78.9748428 818.215793,73.2327044 812.947559,68.5283019 C807.679325,63.8238994 801.579265,60.2264151 794.647378,57.7358491 C787.715491,55.245283 780.298373,54 772.396022,54 C764.632309,54 757.249849,55.245283 750.248644,57.7358491 C743.247438,60.2264151 737.147378,63.8238994 731.948463,68.5283019 C726.749548,73.2327044 722.625075,78.9748428 719.575045,85.754717 C716.525015,92.5345912 715,100.144654 715,108.584906 C715,117.025157 716.525015,124.669811 719.575045,131.518868 C722.625075,138.367925 726.749548,144.179245 731.948463,148.95283 C737.147378,153.726415 743.247438,157.427673 750.248644,160.056604 C757.249849,162.685535 764.632309,164 772.396022,164 Z M772.5,135 C768.485876,135 764.956215,134.240885 761.911017,132.722656 C758.865819,131.204427 756.305085,129.16862 754.228814,126.615234 C752.152542,124.061849 750.595339,121.197917 749.557203,118.023438 C748.519068,114.848958 748,111.605469 748,108.292969 C748,104.980469 748.519068,101.736979 749.557203,98.5625 C750.595339,95.3880208 752.117938,92.593099 754.125,90.1777344 C756.132062,87.7623698 758.658192,85.7955729 761.70339,84.2773438 C764.748588,82.7591146 768.278249,82 772.292373,82 C776.306497,82 779.836158,82.7591146 782.881356,84.2773438 C785.926554,85.7955729 788.487288,87.7623698 790.563559,90.1777344 C792.639831,92.593099 794.231638,95.3880208 795.338983,98.5625 C796.446328,101.736979 797,104.980469 797,108.292969 C797,111.605469 796.480932,114.848958 795.442797,118.023438 C794.404661,121.197917 792.847458,124.061849 790.771186,126.615234 C788.694915,129.16862 786.134181,131.204427 783.088983,132.722656 C780.043785,134.240885 776.514124,135 772.5,135 Z" id="Portfolio" stroke="#D2D2D2" fill="#FFFFFF" fill-rule="nonzero"></path>
                <path d="M1326.07992,107 L1327.01961,107.34202 L1318.46911,130.834336 L1317.52942,130.492316 L1326.07992,107 Z M1316.58973,107 L1317.52942,107.34202 L1308.97891,130.834336 L1308.03922,130.492316 L1316.58973,107 Z M1307.09953,107 L1308.03922,107.34202 L1299.48872,130.834336 L1298.54903,130.492316 L1307.09953,107 Z M1297.60933,107 L1298.54903,107.34202 L1289.99852,130.834336 L1289.05883,130.492316 L1297.60933,107 Z M1288.11914,107 L1289.05883,107.34202 L1280.50833,130.834336 L1279.56863,130.492316 L1288.11914,107 Z M1278.62894,107 L1279.56863,107.34202 L1271.01813,130.834336 L1270.07844,130.492316 L1278.62894,107 Z M1269.13874,107 L1270.07844,107.34202 L1261.52793,130.834336 L1260.58824,130.492316 L1269.13874,107 Z M1259.64855,107 L1260.58824,107.34202 L1252.03774,130.834336 L1251.09804,130.492316 L1259.64855,107 Z M1250.15835,107 L1251.09804,107.34202 L1242.54754,130.834336 L1241.60785,130.492316 L1250.15835,107 Z M1240.66816,107 L1241.60785,107.34202 L1233.05734,130.834336 L1232.11765,130.492316 L1240.66816,107 Z M1231.17796,107 L1232.11765,107.34202 L1223.56715,130.834336 L1222.62746,130.492316 L1231.17796,107 Z M1221.68776,107 L1222.62746,107.34202 L1214.07695,130.834336 L1213.13726,130.492316 L1221.68776,107 Z M1212.19757,107 L1213.13726,107.34202 L1204.58676,130.834336 L1203.64706,130.492316 L1212.19757,107 Z M1202.70737,107 L1203.64706,107.34202 L1195.09656,130.834336 L1194.15687,130.492316 L1202.70737,107 Z M1193.21717,107 L1194.15687,107.34202 L1185.60636,130.834336 L1184.66667,130.492316 L1193.21717,107 Z M1183.72698,107 L1184.66667,107.34202 L1176.11617,130.834336 L1175.17647,130.492316 L1183.72698,107 Z M1174.23678,107 L1175.17647,107.34202 L1166.62597,130.834336 L1165.68628,130.492316 L1174.23678,107 Z M1164.74659,107 L1165.68628,107.34202 L1157.13577,130.834336 L1156.19608,130.492316 L1164.74659,107 Z M1155.25639,107 L1156.19608,107.34202 L1147.64558,130.834336 L1146.70589,130.492316 L1155.25639,107 Z M1145.76619,107 L1146.70589,107.34202 L1138.15538,130.834336 L1137.21569,130.492316 L1145.76619,107 Z M1136.276,107 L1137.21569,107.34202 L1128.66519,130.834336 L1127.72549,130.492316 L1136.276,107 Z M1126.7858,107 L1127.72549,107.34202 L1119.17499,130.834336 L1118.2353,130.492316 L1126.7858,107 Z M1117.2956,107 L1118.2353,107.34202 L1109.68479,130.834336 L1108.7451,130.492316 L1117.2956,107 Z M1107.80541,107 L1108.7451,107.34202 L1100.1946,130.834336 L1099.25491,130.492316 L1107.80541,107 Z M1098.31521,107 L1099.25491,107.34202 L1090.7044,130.834336 L1089.76471,130.492316 L1098.31521,107 Z M1088.82502,107 L1089.76471,107.34202 L1081.21421,130.834336 L1080.27451,130.492316 L1088.82502,107 Z M1079.33482,107 L1080.27451,107.34202 L1071.72401,130.834336 L1070.78432,130.492316 L1079.33482,107 Z M1069.84462,107 L1070.78432,107.34202 L1062.23381,130.834336 L1061.29412,130.492316 L1069.84462,107 Z M1060.35443,107 L1061.29412,107.34202 L1052.74362,130.834336 L1051.80392,130.492316 L1060.35443,107 Z M1050.86423,107 L1051.80392,107.34202 L1043.25342,130.834336 L1042.31373,130.492316 L1050.86423,107 Z M1041.37404,107 L1042.31373,107.34202 L1033.76322,130.834336 L1032.82353,130.492316 L1041.37404,107 Z M1031.88384,107 L1032.82353,107.34202 L1024.27303,130.834336 L1023.33334,130.492316 L1031.88384,107 Z M1022.39364,107 L1023.33334,107.34202 L1014.78283,130.834336 L1013.84314,130.492316 L1022.39364,107 Z M1012.90345,107 L1013.84314,107.34202 L1005.29264,130.834336 L1004.35294,130.492316 L1012.90345,107 Z M1003.41325,107 L1004.35294,107.34202 L995.802439,130.834336 L994.862747,130.492316 L1003.41325,107 Z M993.923054,107 L994.862747,107.34202 L986.312243,130.834336 L985.372551,130.492316 L993.923054,107 Z M984.432858,107 L985.372551,107.34202 L976.822047,130.834336 L975.882354,130.492316 L984.432858,107 Z M974.942662,107 L975.882354,107.34202 L967.331851,130.834336 L966.392158,130.492316 L974.942662,107 Z M965.452466,107 L966.392158,107.34202 L957.841655,130.834336 L956.901962,130.492316 L965.452466,107 Z M955.962269,107 L956.901962,107.34202 L948.351458,130.834336 L947.411766,130.492316 L955.962269,107 Z M946.472073,107 L947.411766,107.34202 L938.861262,130.834336 L937.92157,130.492316 L946.472073,107 Z M936.981877,107 L937.92157,107.34202 L929.371066,130.834336 L928.431373,130.492316 L936.981877,107 Z M927.491681,107 L928.431373,107.34202 L919.88087,130.834336 L918.941177,130.492316 L927.491681,107 Z M918.001485,107 L918.941177,107.34202 L910.390674,130.834336 L909.450981,130.492316 L918.001485,107 Z M908.511288,107 L909.450981,107.34202 L900.900477,130.834336 L899.960785,130.492316 L908.511288,107 Z M899.021092,107 L899.960785,107.34202 L891.410281,130.834336 L890.470589,130.492316 L899.021092,107 Z M889.530896,107 L890.470589,107.34202 L881.920085,130.834336 L880.980392,130.492316 L889.530896,107 Z M880.0407,107 L880.980392,107.34202 L872.429889,130.834336 L871.490196,130.492316 L880.0407,107 Z M870.550504,107 L871.490196,107.34202 L862.939693,130.834336 L862,130.492316 L870.550504,107 Z" id="Combined-Shape" fill="#A0A0A0"></path>
            </g>
        </g>
    </g>
</svg>