<?xml version="1.0" encoding="UTF-8"?>
<svg width="542px" height="193px" viewBox="0 0 542 193" version="1.1" xmlns="http://www.w3.org/2000/svg" xmlns:xlink="http://www.w3.org/1999/xlink">
    <title>Group 4</title>
    <g id="Page-1" stroke="none" stroke-width="1" fill="none" fill-rule="evenodd">
        <g id="/about" transform="translate(1.000000, -111.000000)">
            <g id="Group-4" transform="translate(0.000000, 112.000000)">
                <path d="M29.2960894,134 L29.2960894,87.9915254 L43.858473,87.9915254 C50.1402855,87.9915254 56.1936685,87.3022599 62.018622,85.9237288 C67.8435754,84.5451977 72.9832402,82.3625235 77.4376164,79.3757062 C81.8919926,76.3888889 85.4326505,72.4543315 88.0595903,67.5720339 C90.6865301,62.6897363 92,56.6873823 92,49.5649718 C92,42.5574388 90.7721912,36.6699623 88.3165736,31.9025424 C85.8609559,27.1351224 82.4916201,23.2867232 78.2085661,20.3573446 C73.9255121,17.4279661 68.9000621,15.3027307 63.132216,13.9816384 C57.36437,12.6605461 51.1682185,12 44.5437616,12 L44.5437616,12 L0,12 L0,134 L29.2960894,134 Z M41.1846154,64 L29,64 L29,35 L41.6923077,35 C44.2871795,35 46.7974359,35.1736527 49.2230769,35.5209581 C51.6487179,35.8682635 53.8205128,36.5628743 55.7384615,37.6047904 C57.6564103,38.6467066 59.1794872,40.0938124 60.3076923,41.9461078 C61.4358974,43.7984032 62,46.1716567 62,49.0658683 C62,51.9600798 61.4358974,54.3622754 60.3076923,56.2724551 C59.1794872,58.1826347 57.6282051,59.7165669 55.6538462,60.8742515 C53.6794872,62.0319361 51.4512821,62.8423154 48.9692308,63.3053892 C46.4871795,63.7684631 43.8923077,64 41.1846154,64 L41.1846154,64 Z M136.327273,134 L136.327273,90 C136.327273,88.28125 136.672727,86.2760417 137.363636,83.984375 C138.054545,81.6927083 139.177273,79.5729167 140.731818,77.625 C142.286364,75.6770833 144.359091,74.015625 146.95,72.640625 C149.540909,71.265625 152.736364,70.578125 156.536364,70.578125 C157.687879,70.578125 158.868182,70.6354167 160.077273,70.75 C161.286364,70.8645833 162.524242,71.09375 163.790909,71.4375 L163.790909,71.4375 L165,46.6875 C164.309091,46.4583333 163.416667,46.2864583 162.322727,46.171875 C161.228788,46.0572917 160.106061,46 158.954545,46 C153.657576,46 148.993939,47.375 144.963636,50.125 C140.933333,52.875 137.824242,56.4270833 135.636364,60.78125 L135.636364,60.78125 L135.290909,60.78125 L135.290909,48.40625 L108,48.40625 L108,134 L136.327273,134 Z M219.414105,136 C225.942134,136 232.069319,134.912579 237.79566,132.737736 C243.522001,130.562893 248.561181,127.500943 252.913201,123.551887 C257.26522,119.60283 260.701025,114.795283 263.220615,109.129245 C265.740205,103.463208 267,97.1389937 267,90.1566038 C267,83.1742138 265.740205,76.8786164 263.220615,71.2698113 C260.701025,65.6610063 257.26522,60.9106918 252.913201,57.0188679 C248.561181,53.127044 243.522001,50.1509434 237.79566,48.090566 C232.069319,46.0301887 225.942134,45 219.414105,45 C213.000603,45 206.902049,46.0301887 201.118445,48.090566 C195.33484,50.1509434 190.29566,53.127044 186.000904,57.0188679 C181.706148,60.9106918 178.298975,65.6610063 175.779385,71.2698113 C173.259795,76.8786164 172,83.1742138 172,90.1566038 C172,97.1389937 173.259795,103.463208 175.779385,109.129245 C178.298975,114.795283 181.706148,119.60283 186.000904,123.551887 C190.29566,127.500943 195.33484,130.562893 201.118445,132.737736 C206.902049,134.912579 213.000603,136 219.414105,136 Z M221,112 C217.723164,112 214.841808,111.369792 212.355932,110.109375 C209.870056,108.848958 207.779661,107.158854 206.084746,105.039062 C204.389831,102.919271 203.118644,100.541667 202.271186,97.90625 C201.423729,95.2708333 201,92.578125 201,89.828125 C201,87.078125 201.423729,84.3854167 202.271186,81.75 C203.118644,79.1145833 204.361582,76.7942708 206,74.7890625 C207.638418,72.7838542 209.700565,71.1510417 212.186441,69.890625 C214.672316,68.6302083 217.553672,68 220.830508,68 C224.107345,68 226.988701,68.6302083 229.474576,69.890625 C231.960452,71.1510417 234.050847,72.7838542 235.745763,74.7890625 C237.440678,76.7942708 238.740113,79.1145833 239.644068,81.75 C240.548023,84.3854167 241,87.078125 241,89.828125 C241,92.578125 240.576271,95.2708333 239.728814,97.90625 C238.881356,100.541667 237.610169,102.919271 235.915254,105.039062 C234.220339,107.158854 232.129944,108.848958 229.644068,110.109375 C227.158192,111.369792 224.276836,112 221,112 Z M318.828125,134 L318.828125,69.1612903 L337.90625,69.1612903 L337.90625,47.8941935 L318.828125,47.8941935 L318.828125,39.2490323 C318.828125,37.2894624 319,35.3298925 319.34375,33.3703226 C319.6875,31.4107527 320.317708,29.6529032 321.234375,28.0967742 C322.151042,26.5406452 323.411458,25.3015054 325.015625,24.3793548 C326.619792,23.4572043 328.739583,22.996129 331.375,22.996129 C332.75,22.996129 334.125,23.1113978 335.5,23.3419355 C336.875,23.5724731 338.078125,23.8606452 339.109375,24.2064516 L339.109375,24.2064516 L341,1.72903226 C339.052083,1.15268817 336.903646,0.720430108 334.554688,0.432258065 C332.205729,0.144086022 329.828125,0 327.421875,0 C320.317708,0 314.388021,1.06623656 309.632813,3.19870968 C304.877604,5.3311828 301.096354,8.21290323 298.289062,11.843871 C295.481771,15.4748387 293.505208,19.6821505 292.359375,24.4658065 C291.213542,29.2494624 290.640625,34.2924731 290.640625,39.5948387 L290.640625,39.5948387 L290.640625,47.8941935 L275,47.8941935 L275,69.1612903 L290.640625,69.1612903 L290.640625,134 L318.828125,134 Z M363,36 C365.156028,36 367.198582,35.5981481 369.12766,34.7944444 C371.056738,33.9907407 372.758865,32.9 374.234043,31.5222222 C375.70922,30.1444444 376.87234,28.5083333 377.723404,26.6138889 C378.574468,24.7194444 379,22.6814815 379,20.5 C379,18.3185185 378.574468,16.2805556 377.723404,14.3861111 C376.87234,12.4916667 375.70922,10.8555556 374.234043,9.47777778 C372.758865,8.1 371.056738,7.00925926 369.12766,6.20555556 C367.198582,5.40185185 365.156028,5 363,5 C360.730496,5 358.631206,5.43055556 356.702128,6.29166667 C354.77305,7.15277778 353.070922,8.27222222 351.595745,9.65 C350.120567,11.0277778 348.985816,12.6638889 348.191489,14.5583333 C347.397163,16.4527778 347,18.4333333 347,20.5 C347,24.7481481 348.531915,28.3935185 351.595745,31.4361111 C354.659574,34.4787037 358.460993,36 363,36 Z M378,133 L378,47 L350,47 L350,133 L378,133 Z M430,133 L430,3 L401,3 L401,133 L430,133 Z M494.514451,136 C503.300578,136 511.017341,134.426101 517.66474,131.278302 C524.312139,128.130503 529.65896,123.637736 533.705202,117.8 L533.705202,117.8 L513.936416,105.437736 C511.971098,108.07044 509.427746,110.216667 506.306358,111.876415 C503.184971,113.536164 499.369942,114.366038 494.861272,114.366038 C492.317919,114.366038 489.861272,113.965409 487.491329,113.164151 C485.121387,112.362893 482.982659,111.246855 481.075145,109.816038 C479.16763,108.38522 477.606936,106.696855 476.393064,104.750943 C475.179191,102.805031 474.456647,100.630189 474.225434,98.2264151 L474.225434,98.2264151 L536.82659,98.2264151 C536.942197,97.1962264 537,96.108805 537,94.9641509 L537,94.9641509 L537,91.5301887 C537,84.2044025 535.930636,77.6798742 533.791908,71.9566038 C531.653179,66.2333333 528.676301,61.3685535 524.861272,57.3622642 C521.046243,53.3559748 516.479769,50.2940252 511.16185,48.1764151 C505.843931,46.058805 500.00578,45 493.647399,45 C487.057803,45 480.930636,46.0874214 475.265896,48.2622642 C469.601156,50.4371069 464.687861,53.4990566 460.526012,57.4481132 C456.364162,61.3971698 453.069364,66.204717 450.641618,71.8707547 C448.213873,77.5367925 447,83.8610063 447,90.8433962 C447,98.054717 448.242775,104.46478 450.728324,110.073585 C453.213873,115.68239 456.624277,120.404088 460.959538,124.238679 C465.294798,128.07327 470.352601,130.992138 476.132948,132.995283 C481.913295,134.998428 488.040462,136 494.514451,136 Z M511,81 L475,81 C475.113744,78.7333333 475.682464,76.5561404 476.706161,74.4684211 C477.729858,72.3807018 479.094787,70.5614035 480.800948,69.0105263 C482.507109,67.4596491 484.49763,66.2368421 486.772512,65.3421053 C489.047393,64.4473684 491.549763,64 494.279621,64 C499.853081,64 504.033175,65.6701754 506.819905,69.0105263 C509.606635,72.3508772 511,76.3473684 511,81 L511,81 Z" id="Profile" stroke="#D2D2D2" fill="#FFFFFF" fill-rule="nonzero"></path>
                <path d="M540.001491,168 L540.941184,168.34202 L532.39068,191.834336 L531.450987,191.492316 L540.001491,168 Z M530.511295,168 L531.450987,168.34202 L522.900484,191.834336 L521.960791,191.492316 L530.511295,168 Z M521.021099,168 L521.960791,168.34202 L513.410288,191.834336 L512.470595,191.492316 L521.021099,168 Z M511.530902,168 L512.470595,168.34202 L503.920091,191.834336 L502.980399,191.492316 L511.530902,168 Z M502.040706,168 L502.980399,168.34202 L494.429895,191.834336 L493.490203,191.492316 L502.040706,168 Z M492.55051,168 L493.490203,168.34202 L484.939699,191.834336 L484.000006,191.492316 L492.55051,168 Z M483.060314,168 L484.000006,168.34202 L475.449503,191.834336 L474.50981,191.492316 L483.060314,168 Z M473.570118,168 L474.50981,168.34202 L465.959307,191.834336 L465.019614,191.492316 L473.570118,168 Z M464.079921,168 L465.019614,168.34202 L456.46911,191.834336 L455.529418,191.492316 L464.079921,168 Z M454.589725,168 L455.529418,168.34202 L446.978914,191.834336 L446.039222,191.492316 L454.589725,168 Z M445.099529,168 L446.039222,168.34202 L437.488718,191.834336 L436.549025,191.492316 L445.099529,168 Z M435.609333,168 L436.549025,168.34202 L427.998522,191.834336 L427.058829,191.492316 L435.609333,168 Z M426.119137,168 L427.058829,168.34202 L418.508326,191.834336 L417.568633,191.492316 L426.119137,168 Z M416.62894,168 L417.568633,168.34202 L409.018129,191.834336 L408.078437,191.492316 L416.62894,168 Z M407.138744,168 L408.078437,168.34202 L399.527933,191.834336 L398.588241,191.492316 L407.138744,168 Z M397.648548,168 L398.588241,168.34202 L390.037737,191.834336 L389.098044,191.492316 L397.648548,168 Z M388.158352,168 L389.098044,168.34202 L380.547541,191.834336 L379.607848,191.492316 L388.158352,168 Z M378.668156,168 L379.607848,168.34202 L371.057345,191.834336 L370.117652,191.492316 L378.668156,168 Z M369.177959,168 L370.117652,168.34202 L361.567148,191.834336 L360.627456,191.492316 L369.177959,168 Z M359.687763,168 L360.627456,168.34202 L352.076952,191.834336 L351.13726,191.492316 L359.687763,168 Z M350.197567,168 L351.13726,168.34202 L342.586756,191.834336 L341.647063,191.492316 L350.197567,168 Z M340.707371,168 L341.647063,168.34202 L333.09656,191.834336 L332.156867,191.492316 L340.707371,168 Z M331.217175,168 L332.156867,168.34202 L323.606364,191.834336 L322.666671,191.492316 L331.217175,168 Z M321.726978,168 L322.666671,168.34202 L314.116167,191.834336 L313.176475,191.492316 L321.726978,168 Z M312.236782,168 L313.176475,168.34202 L304.625971,191.834336 L303.686279,191.492316 L312.236782,168 Z M302.746586,168 L303.686279,168.34202 L295.135775,191.834336 L294.196082,191.492316 L302.746586,168 Z M293.25639,168 L294.196082,168.34202 L285.645579,191.834336 L284.705886,191.492316 L293.25639,168 Z M283.766193,168 L284.705886,168.34202 L276.155383,191.834336 L275.21569,191.492316 L283.766193,168 Z M274.275997,168 L275.21569,168.34202 L266.665186,191.834336 L265.725494,191.492316 L274.275997,168 Z M264.785801,168 L265.725494,168.34202 L257.17499,191.834336 L256.235298,191.492316 L264.785801,168 Z M255.295605,168 L256.235298,168.34202 L247.684794,191.834336 L246.745101,191.492316 L255.295605,168 Z M245.805409,168 L246.745101,168.34202 L238.194598,191.834336 L237.254905,191.492316 L245.805409,168 Z M236.315212,168 L237.254905,168.34202 L228.704402,191.834336 L227.764709,191.492316 L236.315212,168 Z M226.825016,168 L227.764709,168.34202 L219.214205,191.834336 L218.274513,191.492316 L226.825016,168 Z M217.33482,168 L218.274513,168.34202 L209.724009,191.834336 L208.784316,191.492316 L217.33482,168 Z M207.844624,168 L208.784316,168.34202 L200.233813,191.834336 L199.29412,191.492316 L207.844624,168 Z M198.354428,168 L199.29412,168.34202 L190.743617,191.834336 L189.803924,191.492316 L198.354428,168 Z M188.864231,168 L189.803924,168.34202 L181.25342,191.834336 L180.313728,191.492316 L188.864231,168 Z M179.374035,168 L180.313728,168.34202 L171.763224,191.834336 L170.823532,191.492316 L179.374035,168 Z M169.883839,168 L170.823532,168.34202 L162.273028,191.834336 L161.333335,191.492316 L169.883839,168 Z M160.393643,168 L161.333335,168.34202 L152.782832,191.834336 L151.843139,191.492316 L160.393643,168 Z M150.903447,168 L151.843139,168.34202 L143.292636,191.834336 L142.352943,191.492316 L150.903447,168 Z M141.41325,168 L142.352943,168.34202 L133.802439,191.834336 L132.862747,191.492316 L141.41325,168 Z M131.923054,168 L132.862747,168.34202 L124.312243,191.834336 L123.372551,191.492316 L131.923054,168 Z M122.432858,168 L123.372551,168.34202 L114.822047,191.834336 L113.882354,191.492316 L122.432858,168 Z M112.942662,168 L113.882354,168.34202 L105.331851,191.834336 L104.392158,191.492316 L112.942662,168 Z M103.452466,168 L104.392158,168.34202 L95.8416547,191.834336 L94.901962,191.492316 L103.452466,168 Z M93.9622694,168 L94.901962,168.34202 L86.3514585,191.834336 L85.4117658,191.492316 L93.9622694,168 Z M84.4720732,168 L85.4117658,168.34202 L76.8612623,191.834336 L75.9215696,191.492316 L84.4720732,168 Z M74.981877,168 L75.9215696,168.34202 L67.371066,191.834336 L66.4313734,191.492316 L74.981877,168 Z M65.4916808,168 L66.4313734,168.34202 L57.8808698,191.834336 L56.9411772,191.492316 L65.4916808,168 Z M56.0014846,168 L56.9411772,168.34202 L48.3906736,191.834336 L47.450981,191.492316 L56.0014846,168 Z M46.5112884,168 L47.450981,168.34202 L38.9004774,191.834336 L37.9607848,191.492316 L46.5112884,168 Z M37.0210922,168 L37.9607848,168.34202 L29.4102812,191.834336 L28.4705886,191.492316 L37.0210922,168 Z M27.530896,168 L28.4705886,168.34202 L19.920085,191.834336 L18.9803924,191.492316 L27.530896,168 Z M18.0406998,168 L18.9803924,168.34202 L10.4298888,191.834336 L9.4901962,191.492316 L18.0406998,168 Z M8.55050358,168 L9.4901962,168.34202 L0.939692621,191.834336 L1.90070182e-13,191.492316 L8.55050358,168 Z" id="Combined-Shape" fill="#A0A0A0"></path>
            </g>
        </g>
    </g>
</svg>